<svg xmlns="http://www.w3.org/2000/svg" width="37" height="30" viewBox="0 0 37 30"><title>  twitter</title><desc>  Created with Sketch.</desc><g fill="none"><g fill="#91A9B3"><path d="M37 3.6C35.6 4.1 34.1 4.6 32.6 4.7 34.2 3.8 35.4 2.3 35.9 0.6 34.5 1.4 32.8 2.1 31.1 2.4 29.8 0.9 27.8 0 25.6 0 21.4 0 18 3.4 18 7.6 18 8.2 18.1 8.7 18.2 9.3 11.9 9 6.3 6 2.6 1.4 2 2.5 1.6 3.8 1.6 5.2 1.6 7.8 2.9 10.1 5 11.5 3.7 11.5 2.5 11.1 1.5 10.5L1.5 10.6C1.5 14.3 4.1 17.4 7.6 18.1 7 18.2 6.3 18.3 5.6 18.3 5.1 18.3 4.6 18.3 4.2 18.2 5.1 21.2 7.9 23.4 11.3 23.5 8.7 25.5 5.4 26.7 1.9 26.7 1.2 26.7 0.6 26.7 0 26.6 3.4 28.8 7.4 30 11.7 30 25.6 30 33.2 18.5 33.2 8.5 33.2 8.1 33.2 7.8 33.2 7.5 34.6 6.4 35.9 5.1 37 3.6Z"/></g></g></svg>