<svg xmlns="http://www.w3.org/2000/svg" width="48" height="36" viewBox="0 0 48 36"><title>  mail</title><desc>  Created with Sketch.</desc><g fill="none"><g fill="#FFF"><path d="M46 0L2 0C0.9 0 0 0.9 0 2L0 34C0 35.1 0.9 36 2 36L46 36C47.1 36 48 35.1 48 34L48 2C48 0.9 47.1 0 46 0ZM45 32C45 32.6 44.6 33 44 33L4 33C3.4 33 3 32.6 3 32L3 4C3 3.4 3.4 3 4 3L44 3C44.6 3 45 3.4 45 4L45 32Z"/><path d="M25.1 20.2C24.7 20.9 23.7 21.1 23.1 20.6L1.1 4.9C0.4 4.4 0.2 3.5 0.7 2.8L0.7 2.8C1.2 2.1 2.1 2 2.8 2.5L24.8 18.1C25.5 18.6 25.6 19.6 25.1 20.2L25.1 20.2Z"/><path d="M22.9 20.2C23.3 20.9 24.3 21.1 24.9 20.6L46.9 4.9C47.6 4.4 47.8 3.5 47.3 2.8L47.3 2.8C46.8 2.1 45.9 2 45.2 2.5L23.2 18.1C22.5 18.6 22.4 19.6 22.9 20.2L22.9 20.2Z"/></g></g></svg>