<svg xmlns="http://www.w3.org/2000/svg" width="36" height="35" viewBox="0 0 36 35"><title>  linkedin</title><desc>  Created with Sketch.</desc><g fill="none"><g fill="#91A9B3"><path d="M8.2 11.6L0.4 11.6 0.4 34.9 8.2 34.9 8.2 11.6ZM8.7 4.5C8.6 2.2 7 0.5 4.4 0.5 1.7 0.5 0 2.2 0 4.5 0 6.7 1.7 8.5 4.3 8.5L4.3 8.5C7 8.5 8.7 6.7 8.7 4.5ZM20.2 11.6L12.4 11.6C12.4 11.6 12.5 13.8 12.4 34.9L20.2 34.9 20.2 21.9C20.2 21.2 20.2 20.5 20.4 20 21 18.6 22.2 17.2 24.4 17.2 27.2 17.2 28.3 19.3 28.3 22.5L28.3 34.9 36 34.9 36 21.6C36 14.4 32.2 11.1 27.1 11.1 23 11.1 21.2 13.4 20.2 14.9L20.2 11.6Z"/></g></g></svg>