<svg xmlns="http://www.w3.org/2000/svg" width="36" height="36" viewBox="0 0 36 36"><title>  fb</title><desc>  Created with Sketch.</desc><g fill="none"><g fill="#91A9B3"><path d="M36 29.2L36 6.7C36 3 33 0 29.3 0L6.8 0C3 0 0 3 0 6.7L0 29.2C0 33 3 36 6.8 36L19.5 36 19.5 21.7 14.3 21.7 14.3 16.5 19.5 16.5 19.5 12.6C19.5 8 22.4 5.4 26.5 5.4 28.5 5.4 30 5.6 30.8 5.6L30.8 10.5 27.7 10.5C25.4 10.5 24.8 11.6 24.8 13.1L24.8 16.5 30.2 16.5 29.5 21.7 24.8 21.7 24.8 36 29.3 36C33 36 36 33 36 29.2Z"/></g></g></svg>