<?xml version="1.0" encoding="UTF-8"?>
<svg width="360px" height="498px" viewBox="0 0 360 498" version="1.1" xmlns="http://www.w3.org/2000/svg" xmlns:xlink="http://www.w3.org/1999/xlink">
    <!-- Generator: Sketch 41.2 (35397) - http://www.bohemiancoding.com/sketch -->
    <title>project illustration</title>
    <desc>Created with Sketch.</desc>
    <defs></defs>
    <g id="Website" stroke="none" stroke-width="1" fill="none" fill-rule="evenodd">
        <g id="Portfolio-Desktop" transform="translate(-891.000000, -785.000000)">
            <g id="projects" transform="translate(-98.000000, 676.000000)">
                <g id="project-illustration" transform="translate(989.000000, 112.000000)">
                    <g id="Group-11" transform="translate(0.000000, 153.000000)">
                        <path d="M346.8864,331.8311 C346.8864,331.8311 236.88531,341.8311 182,341.8311 C125.627644,341.8311 13.1134,331.8311 13.1134,331.8311 C6.1584,331.8311 0.5184,327.3541 0.5184,321.8311 C0.5184,316.3081 6.1584,311.8311 13.1134,311.8311 C13.1134,311.8311 125.726602,322.8311 182,322.8311 C236.984269,322.8311 346.8864,311.8311 346.8864,311.8311 C353.8414,311.8311 359.4814,316.3081 359.4814,321.8311 C359.4814,327.3541 353.8414,331.8311 346.8864,331.8311 Z" id="Fill-1" fill="#91A9B3"></path>
                        <path d="M130,141.7969 L126.72,147.4779 C126.72,147.4779 48.018,255.7729 39.455,301.7899 C38.764,305.5049 43.75,314.9999 48.398,314.9999 C48.398,314.9999 114.198999,324.9999 179.999,324.9999 C245.799001,324.9999 311.599,314.9999 311.599,314.9999 C314.348,314.9999 318.486,305.8999 318.5,301.7899 C318.549,286.8999 233.227,147.3849 233.227,147.3849 C233.227,147.3849 230,141.2309 230,133.2309 L230,30.9999" id="Stroke-3" stroke="#666666" stroke-width="6" stroke-linecap="round"></path>
                        <path d="M129.9998,30.0002 L129.9998,130.0312 C129.9998,130.0312 131.9228,142.2752 126.7198,147.4782" id="Stroke-5" stroke="#666666" stroke-width="6" stroke-linecap="round"></path>
                        <path d="M260,24 C260,27.314 257.313,30 254,30 L106,30 C102.687,30 100,27.314 100,24 C100,24 98,18.0820312 98,15 C98,12.0820312 100,6 100,6 C100,2.686 102.687,0 106,0 L254,0 C257.313,0 260,2.686 260,6 C260,6 262,11.6666667 262,15 C262,17.6666667 260,24 260,24 Z" id="Stroke-9" stroke="#666666" stroke-width="6"></path>
                    </g>
                    <g id="Group-16" transform="translate(50.000000, 354.000000)">
                        <path d="M254.690013,104.168166 C250.549429,108.308749 162.438799,114.815076 130.121169,114.815076 C97.8035396,114.815076 5.01998035,107.894585 1.29356195,104.168166 C-5.35969192,97.5149124 46.9906527,10.1229482 46.9906527,10.1229482 C46.9906527,10.1229482 90.577482,-12.5879749 129.248123,10.1229482 C167.917699,32.8338713 207.311265,11.1876392 207.311265,11.1876392 C207.311265,11.1876392 262.941368,95.9168112 254.690013,104.168166 Z" id="Fill-12" fill="#F1807F"></path>
                        <path d="M147.605418,114.918351 L183.355611,112.788969 L183.355611,18.8204087 C183.355611,18.8204087 160.495631,22.4360993 147.605418,17.7322946 L147.605418,114.918351 Z" id="Fill-14" fill-opacity="0.2" fill="#FFFFFF"></path>
                    </g>
                    <circle id="Oval-7" stroke="#666666" stroke-width="10" cx="147" cy="115" r="15"></circle>
                    <circle id="Oval-7" stroke="#666666" stroke-width="8" cx="213" cy="71" r="21"></circle>
                    <circle id="Oval-7" stroke="#666666" stroke-width="5" cx="142" cy="30" r="30"></circle>
                </g>
            </g>
        </g>
    </g>
</svg>