<?xml version="1.0" encoding="UTF-8"?>
<svg width="398px" height="501px" viewBox="0 0 398 501" version="1.1" xmlns="http://www.w3.org/2000/svg" xmlns:xlink="http://www.w3.org/1999/xlink">
    <!-- Generator: Sketch 41.2 (35397) - http://www.bohemiancoding.com/sketch -->
    <title>Group 13</title>
    <desc>Created with Sketch.</desc>
    <defs>
        <path d="M136.206603,66.7896687 C136.206603,103.17193 106.71074,132.667794 70.3273586,132.667794 C33.9439773,132.667794 4.45035322,103.17193 4.45035322,66.7896687 C4.45035322,30.4062874 33.9439773,0.9104242 70.3273586,0.9104242 C106.71074,0.9104242 136.206603,30.4062874 136.206603,66.7896687" id="path-1"></path>
        <path d="M169.917737,82.3201117 C169.917737,127.706983 133.121648,164.503073 87.7333799,164.503073 C42.3451117,164.503073 5.55181564,127.706983 5.55181564,82.3201117 C5.55181564,36.9318436 42.3451117,0.13575419 87.7333799,0.13575419 C133.121648,0.13575419 169.917737,36.9318436 169.917737,82.3201117" id="path-3"></path>
    </defs>
    <g id="Website" stroke="none" stroke-width="1" fill="none" fill-rule="evenodd">
        <g id="Portfolio-Desktop" transform="translate(-882.000000, -2199.000000)">
            <g id="Resume" transform="translate(0.000000, 2171.000000)">
                <g id="Group-13" transform="translate(879.000000, -31.000000)">
                    <g id="medal-2">
                        <g id="Group-6" transform="translate(0.000000, 11.000000)">
                            <polygon id="Stroke-1" stroke="#666666" stroke-width="4" stroke-linejoin="round" points="68.1005587 285.64088 122.194221 271.24113 50.1921161 0.771699824 0.576684094 30.8452548"></polygon>
                            <polygon id="Fill-3" fill="#D6E6F2" points="104.242451 277.139183 121.55305 272.531085 49.5487064 2.06165403 33.3599042 12.2675407"></polygon>
                            <polygon id="Fill-4" fill="#ABC7D9" points="85.136642 282.225893 104.610226 277.041222 34.8461168 11.0500218 16.4920903 22.9520382"></polygon>
                            <polygon id="Fill-5" fill="#91A9B3" points="69.1829469 286.472823 86.4924262 281.864724 16.728317 22.5908689 1.65907233 31.677198"></polygon>
                        </g>
                        <g id="Group-7" transform="translate(100.000000, 0.000000)">
                            <polygon id="Stroke-6" stroke="#666666" stroke-width="4" stroke-linejoin="round" points="54.2348384 285.445304 0.141176207 271.045555 72.143281 0.576124316 121.758713 30.6496792"></polygon>
                            <polygon id="Fill-8" fill="#D6E6F2" points="18.0930576 276.943608 0.782458772 272.335509 72.7868027 1.86607853 88.9756048 12.0719652"></polygon>
                            <polygon id="Fill-9" fill="#ABC7D9" points="37.1987551 282.030318 17.725171 276.845647 87.4892802 10.8544463 105.843307 22.7564626"></polygon>
                            <polygon id="Fill-10" fill="#91A9B3" points="53.1524502 286.277247 35.8429709 281.669148 105.60708 22.3952934 120.676325 31.4816225"></polygon>
                        </g>
                        <g id="Group-19" transform="translate(45.825842, 266.648381)">
                            <mask id="mask-2" fill="white">
                                <use xlink:href="#path-1"></use>
                            </mask>
                            <use id="Fill-11" fill="#F8F8F8" xlink:href="#path-1"></use>
                            <rect id="Rectangle-5" fill-opacity="0.2" fill="#D6E6F2" mask="url(#mask-2)" transform="translate(85.915167, 65.542938) rotate(15.000000) translate(-85.915167, -65.542938) " x="69.9613771" y="-9.45706231" width="31.9075798" height="150"></rect>
                            <rect id="Rectangle-5" fill-opacity="0.2" fill="#D6E6F2" mask="url(#mask-2)" transform="translate(57.734513, 63.675212) rotate(15.000000) translate(-57.734513, -63.675212) " x="52.7345129" y="-26.5462204" width="10" height="180.442865"></rect>
                            <path d="M136.206603,66.7896687 C136.206603,103.17193 106.71074,132.667794 70.3273586,132.667794 C33.9439773,132.667794 4.45035322,103.17193 4.45035322,66.7896687 C4.45035322,30.4062874 33.9439773,0.9104242 70.3273586,0.9104242 C106.71074,0.9104242 136.206603,30.4062874 136.206603,66.7896687 Z" id="Stroke-13" stroke="#666666" stroke-width="4"></path>
                            <path d="M65.8909999,132.518333 C65.8909999,132.518333 2.46358639,129.432832 0.74058732,67.6500487 C-1.0786937,2.32162649 68.7514694,0.930016457 68.7514694,0.930016457 C42.6557025,6.02064464 14.3756787,31.1457552 14.5839164,67.5168214 C14.7406545,94.6515377 35.5711423,127.043696 65.8909999,132.518333" id="Fill-15" fill="#E4ECF3"></path>
                            <path d="M65.8909999,132.518333 C65.8909999,132.518333 2.46358639,129.432832 0.74058732,67.6500487 C-1.0786937,2.32162649 68.7514694,0.930016457 68.7514694,0.930016457 C42.6557025,6.02064464 14.3756787,31.1457552 14.5839164,67.5168214 C14.7406545,94.6515377 35.5711423,127.043696 65.8909999,132.518333 Z" id="Stroke-17" stroke="#666666" stroke-width="4" stroke-linecap="round" stroke-linejoin="round"></path>
                        </g>
                        <path d="M69.2857143,522.571429 C79.6712682,519.961067 96.4285714,519 119.724702,519 C143.020833,519 162.402149,521.333078 173.571429,524 C181.428571,527.912314 184.285714,526.857143 173.571429,530.428571 C161.699875,532.947438 146.362259,534 119.707961,534 C93.0536641,534 79.0552268,531.673258 68.5714286,529 C60.7142857,525.428571 60,525.428571 69.2857143,522.571429 Z" id="Rectangle-6" fill="#B8C6CC"></path>
                    </g>
                    <g id="medal-1" transform="translate(130.000000, 0.000000)">
                        <path d="M72,544 C86.5397755,540.345494 110,539 142.614583,539 C175.229167,539 202.363008,542.266309 218,546 C229,551.477239 233,550 218,555 C201.379825,558.526413 179.907162,560 142.591146,560 C105.27513,560 85.6773175,556.742562 71,553 C60,548 59,548 72,544 Z" id="Rectangle-6" fill="#7C9199"></path>
                        <g id="Group-9" transform="translate(0.000000, 14.000000)">
                            <polygon id="Stroke-1" stroke="#666666" stroke-width="4" stroke-linejoin="round" points="84.9554469 356.059497 152.437291 338.09581 62.6146648 0.685195531 0.719413408 38.2019553"></polygon>
                            <polygon id="Fill-3" fill="#A55164" points="130.042458 345.453631 151.63743 339.705028 61.8120112 2.29441341 41.6164804 15.026257"></polygon>
                            <polygon id="Fill-4" fill="#EB715F" points="106.207961 351.799302 130.501257 345.331425 43.4705307 13.5074022 20.5738827 28.3551676"></polygon>
                            <polygon id="Fill-5" fill="#FCBF78" points="86.3057263 357.097346 107.899302 351.348743 20.8685754 27.9046089 2.06969274 39.2398045"></polygon>
                        </g>
                        <g id="Group-8" transform="translate(122.000000, 0.000000)">
                            <polygon id="Stroke-6" stroke="#666666" stroke-width="4" stroke-linejoin="round" points="67.9329609 356.093017 0.451117318 338.12933 90.273743 0.718715084 152.168994 38.2354749"></polygon>
                            <polygon id="Fill-8" fill="#A55164" points="22.8460894 345.487151 1.25111732 339.738547 91.0765363 2.32793296 111.272067 15.0597765"></polygon>
                            <polygon id="Fill-9" fill="#EB715F" points="46.6804469 351.832821 22.3871508 345.364944 109.417877 13.5409218 132.314525 28.3886872"></polygon>
                            <polygon id="Fill-10" fill="#FCBF78" points="66.5826816 357.130866 44.9891061 351.382263 132.019832 27.9381285 150.818715 39.273324"></polygon>
                        </g>
                        <g id="Group-19" transform="translate(54.692737, 333.643855)">
                            <mask id="mask-4" fill="white">
                                <use xlink:href="#path-3"></use>
                            </mask>
                            <use id="Fill-11" fill="#F7C96B" xlink:href="#path-3"></use>
                            <rect id="Rectangle-5" fill-opacity="0.2" fill="#FFFFFF" mask="url(#mask-4)" transform="translate(116.018796, 97.075089) rotate(15.000000) translate(-116.018796, -97.075089) " x="96.0187962" y="2.07508859" width="40" height="190"></rect>
                            <rect id="Rectangle-5" fill-opacity="0.2" fill="#FFFFFF" mask="url(#mask-4)" transform="translate(85.307263, 80.356145) rotate(15.000000) translate(-85.307263, -80.356145) " x="80.3072626" y="-19.6438547" width="10" height="200"></rect>
                            <path d="M169.917737,82.3201117 C169.917737,127.706983 133.121648,164.503073 87.7333799,164.503073 C42.3451117,164.503073 5.55181564,127.706983 5.55181564,82.3201117 C5.55181564,36.9318436 42.3451117,0.13575419 87.7333799,0.13575419 C133.121648,0.13575419 169.917737,36.9318436 169.917737,82.3201117 Z" id="Stroke-13" stroke="#666666" stroke-width="4"></path>
                            <path d="M82.1990223,164.31662 C82.1990223,164.31662 3.07332402,160.467458 0.923882682,83.3934358 C-1.34567039,1.89622905 85.7674581,0.160195531 85.7674581,0.160195531 C53.2129888,6.51075419 17.9336592,37.8543296 18.1934358,83.2272346 C18.3889665,117.077793 44.375,157.487011 82.1990223,164.31662" id="Fill-15" fill="#CCA15C"></path>
                            <path d="M82.1990223,164.31662 C82.1990223,164.31662 3.07332402,160.467458 0.923882682,83.3934358 C-1.34567039,1.89622905 85.7674581,0.160195531 85.7674581,0.160195531 C53.2129888,6.51075419 17.9336592,37.8543296 18.1934358,83.2272346 C18.3889665,117.077793 44.375,157.487011 82.1990223,164.31662 Z" id="Stroke-17" stroke="#666666" stroke-width="4"></path>
                        </g>
                    </g>
                </g>
            </g>
        </g>
    </g>
</svg>